<?xml version="1.0" encoding="UTF-8" standalone="no"?>
<!DOCTYPE svg PUBLIC "-//W3C//DTD SVG 1.1//EN" "http://www.w3.org/Graphics/SVG/1.1/DTD/svg11.dtd">
<!-- Created with Vectornator (http://vectornator.io/) -->
<svg height="100%" stroke-miterlimit="10" style="fill-rule:nonzero;clip-rule:evenodd;stroke-linecap:round;stroke-linejoin:round;" version="1.1" viewBox="0 0 1000 1079" width="100%" xml:space="preserve" xmlns="http://www.w3.org/2000/svg" xmlns:xlink="http://www.w3.org/1999/xlink">
<defs/>
<g id="Layer-1">
<path d="M483.438 370.219C477.771 370.219 471.271 371.052 463.938 372.719C456.604 374.385 450.438 376.719 445.438 379.719C440.437 382.719 436.104 386.719 432.438 391.719C428.771 396.719 426.438 401.885 425.438 407.219C424.437 412.552 424.437 415.552 425.438 416.219C426.438 416.885 431.771 417.552 441.438 418.219C451.104 418.885 456.771 417.219 458.438 413.219C460.104 409.219 461.771 406.385 463.438 404.719C465.104 403.052 467.104 401.719 469.438 400.719C471.771 399.719 475.104 399.219 479.438 399.219C483.771 399.219 486.771 399.552 488.438 400.219C490.104 400.885 491.937 402.385 493.938 404.719C495.938 407.052 497.104 411.552 497.438 418.219C497.771 424.885 490.438 429.385 475.438 431.719C460.437 434.052 450.104 436.719 444.438 439.719C438.771 442.719 434.604 445.552 431.938 448.219C429.271 450.885 426.771 454.552 424.438 459.219C422.104 463.885 420.604 467.885 419.938 471.219C419.271 474.552 419.271 479.719 419.938 486.719C420.604 493.719 421.771 499.052 423.438 502.719C425.104 506.385 427.437 509.719 430.438 512.719C433.438 515.719 437.604 518.219 442.938 520.219C448.271 522.219 454.271 523.219 460.938 523.219C467.604 523.219 472.771 522.719 476.438 521.719C480.104 520.719 483.771 519.219 487.438 517.219C491.104 515.219 494.604 512.552 497.938 509.219C499.604 507.552 501.271 505.885 502.938 504.219C504.938 506.719 506.937 509.219 508.938 511.719C512.938 516.719 515.604 519.719 516.938 520.719C518.271 521.719 519.937 522.219 521.938 522.219C523.938 522.219 528.604 519.052 535.938 512.719C543.271 506.385 546.938 502.219 546.938 500.219C546.938 498.219 545.938 496.052 543.938 493.719C541.937 491.385 540.104 488.219 538.438 484.219C536.771 480.219 535.938 466.552 535.938 443.219C535.938 419.885 535.604 406.552 534.938 403.219C534.271 399.885 533.104 396.552 531.438 393.219C529.771 389.885 526.104 386.052 520.438 381.719C514.771 377.385 508.604 374.385 501.938 372.719C495.271 371.052 489.104 370.219 483.438 370.219ZM491.938 450.219C493.938 450.219 495.937 450.219 497.938 450.219C497.938 453.885 497.938 457.552 497.938 461.219C497.938 468.552 497.438 473.885 496.438 477.219C495.437 480.552 492.771 484.385 488.438 488.719C484.104 493.052 479.438 495.219 474.438 495.219C469.437 495.219 465.604 493.552 462.938 490.219C460.271 486.885 458.771 483.552 458.438 480.219C458.104 476.885 458.271 473.719 458.938 470.719C459.604 467.719 461.271 464.552 463.938 461.219C466.604 457.885 470.937 455.219 476.938 453.219C482.938 451.219 487.937 450.219 491.938 450.219ZM134.938 370.719C126.937 370.385 119.771 370.885 113.438 372.219C107.104 373.552 101.438 375.552 96.4375 378.219C91.4375 380.885 87.1042 384.219 83.4375 388.219C79.7708 392.219 76.9375 397.552 74.9375 404.219C72.9375 410.885 72.4375 414.719 73.4375 415.719C74.4375 416.719 79.6042 417.719 88.9375 418.719C98.2708 419.719 103.437 419.885 104.438 419.219C105.438 418.552 106.771 416.052 108.438 411.719C110.104 407.385 108.977 406.706 113.438 403.219C117.48 400.058 119.104 400.885 125.438 400.219C131.771 399.552 136.604 400.552 139.938 403.219C143.271 405.885 145.271 410.719 145.938 417.719C146.604 424.719 139.937 429.219 125.938 431.219C111.937 433.219 103.104 434.885 99.4375 436.219C95.7708 437.552 91.9375 439.552 87.9375 442.219C83.9375 444.885 79.9375 449.219 75.9375 455.219C71.9375 461.219 69.6042 465.552 68.9375 468.219C68.2708 470.885 68.1042 476.219 68.4375 484.219C68.7708 492.219 70.1042 498.552 72.4375 503.219C74.7708 507.885 77.7708 511.719 81.4375 514.719C85.1042 517.719 88.2708 519.719 90.9375 520.719C93.6042 521.719 100.531 524.031 110.531 524.031C120.531 524.031 127.437 521.052 132.438 518.719C137.438 516.385 141.771 513.385 145.438 509.719C147.271 507.885 149.104 506.052 150.938 504.219C153.604 507.219 156.271 510.219 158.938 513.219C164.271 519.219 167.937 522.219 169.938 522.219C171.938 522.219 176.771 518.885 184.438 512.219C192.104 505.552 195.771 501.219 195.438 499.219C195.104 497.219 193.604 494.552 190.938 491.219C188.271 487.885 186.438 484.219 185.438 480.219C184.437 476.219 183.771 461.885 183.438 437.219C183.104 412.552 181.771 397.885 179.438 393.219C177.104 388.552 173.771 384.552 169.438 381.219C165.104 377.885 160.271 375.385 154.938 373.719C149.604 372.052 142.938 371.052 134.938 370.719ZM140.938 450.219C142.938 450.219 144.937 450.219 146.938 450.219C146.938 453.052 146.938 455.885 146.938 458.719C146.938 464.385 146.438 469.552 145.438 474.219C144.437 478.885 142.104 483.385 138.438 487.719C134.771 492.052 130.437 494.552 125.438 495.219C120.437 495.885 116.271 494.552 112.938 491.219C109.604 487.885 107.938 483.052 107.938 476.719C107.938 470.385 108.437 466.219 109.438 464.219C110.438 462.219 112.104 460.219 114.438 458.219C116.771 456.219 120.771 454.385 126.438 452.719C132.104 451.052 136.937 450.219 140.938 450.219ZM282.938 371.719C280.771 371.885 278.604 372.219 276.438 372.719C272.104 373.719 268.604 375.052 265.938 376.719C263.271 378.385 260.604 380.885 257.938 384.219C255.271 387.552 253.604 390.385 252.938 392.719C252.271 395.052 251.604 396.219 250.938 396.219C250.604 396.219 250.271 396.219 249.938 396.219C250.104 393.385 250.271 390.552 250.438 387.719C250.771 382.052 250.604 378.552 249.938 377.219C249.271 375.885 243.938 375.052 233.938 374.719C223.937 374.385 218.438 374.552 217.438 375.219C216.437 375.885 215.938 400.052 215.938 447.719C215.938 495.385 216.271 519.552 216.938 520.219C217.604 520.885 223.271 521.219 233.938 521.219C244.604 521.219 250.271 520.885 250.938 520.219C251.604 519.552 252.104 503.052 252.438 470.719C252.771 438.385 253.937 420.052 255.938 415.719C257.938 411.385 260.937 408.552 264.938 407.219C268.938 405.885 272.771 405.885 276.438 407.219C280.104 408.552 282.771 411.052 284.438 414.719C286.104 418.385 287.104 436.885 287.438 470.219C287.771 503.552 285.395 522.123 289.469 522.156C308.104 522.309 322.271 520.885 322.938 520.219C323.604 519.552 324.104 502.885 324.438 470.219C324.771 437.552 326.104 419.219 328.438 415.219C330.771 411.219 332.937 408.719 334.938 407.719C336.938 406.719 339.771 406.219 343.438 406.219C347.104 406.219 350.104 407.052 352.438 408.719C354.771 410.385 356.437 412.552 357.438 415.219C358.438 417.885 358.938 435.719 358.938 468.719C358.938 501.719 359.437 518.719 360.438 519.719C361.438 520.719 367.271 521.219 377.938 521.219C388.604 521.219 394.271 520.719 394.938 519.719C395.604 518.719 395.938 499.219 395.938 461.219C395.938 423.219 394.771 401.052 392.438 394.719C390.104 388.385 386.438 383.385 381.438 379.719C376.437 376.052 370.604 373.719 363.938 372.719C357.271 371.719 350.438 372.552 343.438 375.219C336.437 377.885 331.271 381.219 327.938 385.219C324.604 389.219 322.771 392.052 322.438 393.719C322.104 395.385 321.604 396.219 320.938 396.219C320.271 396.219 319.271 394.552 317.938 391.219C316.604 387.885 314.271 384.552 310.938 381.219C307.604 377.885 304.271 375.552 300.938 374.219C297.604 372.885 293.771 372.052 289.438 371.719C287.271 371.552 285.104 371.552 282.938 371.719ZM746.438 371.719C740.771 371.385 733.938 372.385 725.938 374.719C717.937 377.052 710.938 381.052 704.938 386.719C698.937 392.385 694.104 399.385 690.438 407.719C686.771 416.052 684.438 426.052 683.438 437.719C682.437 449.385 682.771 459.719 684.438 468.719C686.104 477.719 688.771 485.719 692.438 492.719C696.104 499.719 699.771 505.052 703.438 508.719C707.104 512.385 711.104 515.385 715.438 517.719C719.771 520.052 723.771 521.719 727.438 522.719C731.104 523.719 735.937 524.219 741.938 524.219C747.938 524.219 752.937 523.719 756.938 522.719C760.938 521.719 765.104 520.052 769.438 517.719C773.771 515.385 778.771 511.052 784.438 504.719C790.104 498.385 794.604 490.552 797.938 481.219C801.271 471.885 803.104 462.385 803.438 452.719C803.771 443.052 802.771 433.219 800.438 423.219C798.104 413.219 795.104 405.219 791.438 399.219C787.771 393.219 784.271 388.719 780.938 385.719C777.604 382.719 774.104 380.219 770.438 378.219C766.771 376.219 763.271 374.719 759.938 373.719C756.604 372.719 752.104 372.052 746.438 371.719ZM741.812 399.719C743.229 399.552 744.604 399.552 745.938 399.719C748.604 400.052 751.104 401.052 753.438 402.719C755.771 404.385 757.604 406.552 758.938 409.219C760.271 411.885 761.437 415.885 762.438 421.219C763.438 426.552 763.938 435.719 763.938 448.719C763.938 461.719 763.438 470.552 762.438 475.219C761.437 479.885 759.438 484.219 756.438 488.219C753.437 492.219 750.938 494.552 748.938 495.219C746.937 495.885 744.271 496.052 740.938 495.719C737.604 495.385 734.771 494.219 732.438 492.219C730.104 490.219 728.271 487.719 726.938 484.719C725.604 481.719 724.438 477.385 723.438 471.719C722.437 466.052 722.271 455.385 722.938 439.719C723.604 424.052 724.604 414.719 725.938 411.719C727.271 408.719 728.771 406.385 730.438 404.719C732.104 403.052 734.437 401.719 737.438 400.719C738.938 400.219 740.396 399.885 741.812 399.719ZM898.938 371.719C894.271 371.385 888.938 372.219 882.938 374.219C876.937 376.219 872.604 378.552 869.938 381.219C867.271 383.885 864.938 387.385 862.938 391.719C861.937 393.885 860.938 396.052 859.938 398.219C859.771 394.719 859.604 391.219 859.438 387.719C859.104 380.719 858.438 376.719 857.438 375.719C856.437 374.719 851.104 374.219 841.438 374.219C831.771 374.219 826.438 374.719 825.438 375.719C824.437 376.719 823.938 400.719 823.938 447.719C823.938 494.719 824.271 518.719 824.938 519.719C825.604 520.719 831.271 521.219 841.938 521.219C852.604 521.219 858.437 520.719 859.438 519.719C860.438 518.719 860.938 503.552 860.938 474.219C860.938 444.885 861.937 427.219 863.938 421.219C865.938 415.219 868.771 411.052 872.438 408.719C876.104 406.385 880.104 405.719 884.438 406.719C888.771 407.719 891.937 410.385 893.938 414.719C895.938 419.052 896.938 437.385 896.938 469.719C896.938 502.052 897.437 518.719 898.438 519.719C899.438 520.719 905.271 521.219 915.938 521.219C926.604 521.219 932.271 520.885 932.938 520.219C933.604 519.552 933.938 500.885 933.938 464.219C933.938 427.552 933.604 407.385 932.938 403.719C932.271 400.052 931.104 396.219 929.438 392.219C927.771 388.219 925.438 384.719 922.438 381.719C919.437 378.719 915.938 376.385 911.938 374.719C907.937 373.052 903.604 372.052 898.938 371.719ZM617.438 374.219C586.437 374.219 570.604 374.552 569.938 375.219C569.271 375.885 569.104 380.719 569.438 389.719C569.771 398.719 578.104 403.552 594.438 404.219C602.604 404.552 610.771 404.885 618.938 405.219C609.771 418.385 600.604 431.552 591.438 444.719C573.104 471.052 563.938 489.552 563.938 500.219C563.938 510.885 564.937 516.552 566.938 517.219C568.938 517.885 572.104 517.052 576.438 514.719C580.771 512.385 585.604 510.552 590.938 509.219C596.271 507.885 603.604 507.052 612.938 506.719C622.271 506.385 630.271 506.885 636.938 508.219C643.604 509.552 649.771 511.552 655.438 514.219C661.104 516.885 664.604 518.052 665.938 517.719C667.271 517.385 668.104 512.385 668.438 502.719C668.771 493.052 668.438 487.552 667.438 486.219C666.437 484.885 661.938 482.719 653.938 479.719C645.937 476.719 637.438 474.885 628.438 474.219C623.937 473.885 619.438 473.552 614.938 473.219C623.271 461.385 631.604 449.552 639.938 437.719C656.604 414.052 665.271 401.552 665.938 400.219C666.604 398.885 666.938 394.719 666.938 387.719C666.938 380.719 666.438 376.719 665.438 375.719C664.437 374.719 648.438 374.219 617.438 374.219ZM619.656 527.969C613.094 527.969 605.688 528.719 597.438 530.219C586.437 532.219 578.604 534.385 573.938 536.719C569.271 539.052 566.271 541.385 564.938 543.719C564.271 544.885 563.604 546.052 562.938 547.219C570.771 546.885 578.604 546.552 586.438 546.219C602.104 545.552 611.937 545.552 615.938 546.219C619.938 546.885 622.771 547.885 624.438 549.219C626.104 550.552 627.104 553.052 627.438 556.719C627.771 560.385 627.604 563.885 626.938 567.219C626.271 570.552 623.604 578.385 618.938 590.719C614.271 603.052 612.104 609.719 612.438 610.719C612.771 611.719 613.771 612.219 615.438 612.219C617.104 612.219 619.937 610.219 623.938 606.219C627.938 602.219 631.771 597.052 635.438 590.719C639.104 584.385 642.271 576.719 644.938 567.719C647.604 558.719 648.938 551.052 648.938 544.719C648.938 538.385 647.104 534.219 643.438 532.219C639.771 530.219 633.938 528.885 625.938 528.219C623.937 528.052 621.844 527.969 619.656 527.969ZM191.438 537.219C190.437 537.885 189.938 539.052 189.938 540.719C189.938 542.385 194.271 546.885 202.938 554.219C211.604 561.552 221.271 568.719 231.938 575.719C242.604 582.719 252.771 588.719 262.438 593.719C272.104 598.719 285.771 604.385 303.438 610.719C321.104 617.052 339.437 621.885 358.438 625.219C377.438 628.552 397.271 630.219 417.938 630.219C438.604 630.219 459.104 628.385 479.438 624.719C499.771 621.052 517.937 616.385 533.938 610.719C549.938 605.052 563.604 599.219 574.938 593.219C586.271 587.219 594.771 581.885 600.438 577.219C606.104 572.552 608.938 569.385 608.938 567.719C608.938 566.052 607.604 564.552 604.938 563.219C602.271 561.885 592.938 564.219 576.938 570.219C560.937 576.219 544.604 581.219 527.938 585.219C511.271 589.219 495.104 592.219 479.438 594.219C463.771 596.219 445.104 597.219 423.438 597.219C401.771 597.219 382.938 596.219 366.938 594.219C350.937 592.219 333.938 589.052 315.938 584.719C297.937 580.385 280.438 575.052 263.438 568.719C246.437 562.385 230.438 555.385 215.438 547.719C200.437 540.052 192.438 536.552 191.438 537.219Z" fill="#e3e7ea" fill-rule="nonzero" opacity="1" stroke="none"/>
</g>
</svg>
