<?xml version="1.0" encoding="UTF-8" standalone="no"?>
<!DOCTYPE svg PUBLIC "-//W3C//DTD SVG 1.1//EN" "http://www.w3.org/Graphics/SVG/1.1/DTD/svg11.dtd">
<!-- Created with Vectornator (http://vectornator.io/) -->
<svg height="100%" stroke-miterlimit="10" style="fill-rule:nonzero;clip-rule:evenodd;stroke-linecap:round;stroke-linejoin:round;" version="1.1" viewBox="0 0 1000 1079" width="100%" xml:space="preserve" xmlns="http://www.w3.org/2000/svg" xmlns:xlink="http://www.w3.org/1999/xlink">
<defs/>
<g id="Layer-1">
<path d="M483.5 370.25C477.833 370.25 471.333 371.083 464 372.75C456.667 374.417 450.5 376.75 445.5 379.75C440.5 382.75 436.167 386.75 432.5 391.75C428.833 396.75 426.5 401.917 425.5 407.25C424.5 412.583 424.5 415.583 425.5 416.25C426.5 416.917 431.833 417.583 441.5 418.25C451.167 418.917 456.833 417.25 458.5 413.25C460.167 409.25 461.833 406.417 463.5 404.75C465.167 403.083 467.167 401.75 469.5 400.75C471.833 399.75 475.167 399.25 479.5 399.25C483.833 399.25 486.833 399.583 488.5 400.25C490.167 400.917 492 402.417 494 404.75C496 407.083 497.167 411.583 497.5 418.25C497.833 424.917 490.5 429.417 475.5 431.75C460.5 434.083 450.167 436.75 444.5 439.75C438.833 442.75 434.667 445.583 432 448.25C429.333 450.917 426.833 454.583 424.5 459.25C422.167 463.917 420.667 467.917 420 471.25C419.333 474.583 419.333 479.75 420 486.75C420.667 493.75 421.833 499.083 423.5 502.75C425.167 506.417 427.5 509.75 430.5 512.75C433.5 515.75 437.667 518.25 443 520.25C448.333 522.25 454.333 523.25 461 523.25C467.667 523.25 472.833 522.75 476.5 521.75C480.167 520.75 483.833 519.25 487.5 517.25C491.167 515.25 494.667 512.583 498 509.25C499.667 507.583 501.333 505.917 503 504.25C505 506.75 507 509.25 509 511.75C513 516.75 515.667 519.75 517 520.75C518.333 521.75 520 522.25 522 522.25C524 522.25 528.667 519.083 536 512.75C543.333 506.417 547 502.25 547 500.25C547 498.25 546 496.083 544 493.75C542 491.417 540.167 488.25 538.5 484.25C536.833 480.25 536 466.583 536 443.25C536 419.917 535.667 406.583 535 403.25C534.333 399.917 533.167 396.583 531.5 393.25C529.833 389.917 526.167 386.083 520.5 381.75C514.833 377.417 508.667 374.417 502 372.75C495.333 371.083 489.167 370.25 483.5 370.25ZM492 450.25C494 450.25 496 450.25 498 450.25C498 453.917 498 457.583 498 461.25C498 468.583 497.5 473.917 496.5 477.25C495.5 480.583 492.833 484.417 488.5 488.75C484.167 493.083 479.5 495.25 474.5 495.25C469.5 495.25 465.667 493.583 463 490.25C460.333 486.917 458.833 483.583 458.5 480.25C458.167 476.917 458.333 473.75 459 470.75C459.667 467.75 461.333 464.583 464 461.25C466.667 457.917 471 455.25 477 453.25C483 451.25 488 450.25 492 450.25ZM135 370.75C127 370.417 119.833 370.917 113.5 372.25C107.167 373.583 101.5 375.583 96.5 378.25C91.5 380.917 87.1667 384.25 83.5 388.25C79.8333 392.25 77 397.583 75 404.25C73 410.917 72.5 414.75 73.5 415.75C74.5 416.75 79.6667 417.75 89 418.75C98.3333 419.75 103.5 419.917 104.5 419.25C105.5 418.583 106.833 416.083 108.5 411.75C110.167 407.417 109.04 406.737 113.5 403.25C117.542 400.089 119.167 400.917 125.5 400.25C131.833 399.583 136.667 400.583 140 403.25C143.333 405.917 145.333 410.75 146 417.75C146.667 424.75 140 429.25 126 431.25C112 433.25 103.167 434.917 99.5 436.25C95.8333 437.583 92 439.583 88 442.25C84 444.917 80 449.25 76 455.25C72 461.25 69.6667 465.583 69 468.25C68.3333 470.917 68.1667 476.25 68.5 484.25C68.8333 492.25 70.1667 498.583 72.5 503.25C74.8333 507.917 77.8333 511.75 81.5 514.75C85.1667 517.75 88.3333 519.75 91 520.75C93.6667 521.75 100.594 524.063 110.594 524.062C120.594 524.062 127.5 521.083 132.5 518.75C137.5 516.417 141.833 513.417 145.5 509.75C147.333 507.917 149.167 506.083 151 504.25C153.667 507.25 156.333 510.25 159 513.25C164.333 519.25 168 522.25 170 522.25C172 522.25 176.833 518.917 184.5 512.25C192.167 505.583 195.833 501.25 195.5 499.25C195.167 497.25 193.667 494.583 191 491.25C188.333 487.917 186.5 484.25 185.5 480.25C184.5 476.25 183.833 461.917 183.5 437.25C183.167 412.583 181.833 397.917 179.5 393.25C177.167 388.583 173.833 384.583 169.5 381.25C165.167 377.917 160.333 375.417 155 373.75C149.667 372.083 143 371.083 135 370.75ZM141 450.25C143 450.25 145 450.25 147 450.25C147 453.083 147 455.917 147 458.75C147 464.417 146.5 469.583 145.5 474.25C144.5 478.917 142.167 483.417 138.5 487.75C134.833 492.083 130.5 494.583 125.5 495.25C120.5 495.917 116.333 494.583 113 491.25C109.667 487.917 108 483.083 108 476.75C108 470.417 108.5 466.25 109.5 464.25C110.5 462.25 112.167 460.25 114.5 458.25C116.833 456.25 120.833 454.417 126.5 452.75C132.167 451.083 137 450.25 141 450.25ZM283 371.75C280.833 371.917 278.667 372.25 276.5 372.75C272.167 373.75 268.667 375.083 266 376.75C263.333 378.417 260.667 380.917 258 384.25C255.333 387.583 253.667 390.417 253 392.75C252.333 395.083 251.667 396.25 251 396.25C250.667 396.25 250.333 396.25 250 396.25C250.167 393.417 250.333 390.583 250.5 387.75C250.833 382.083 250.667 378.583 250 377.25C249.333 375.917 244 375.083 234 374.75C224 374.417 218.5 374.583 217.5 375.25C216.5 375.917 216 400.083 216 447.75C216 495.417 216.333 519.583 217 520.25C217.667 520.917 223.333 521.25 234 521.25C244.667 521.25 250.333 520.917 251 520.25C251.667 519.583 252.167 503.083 252.5 470.75C252.833 438.417 254 420.083 256 415.75C258 411.417 261 408.583 265 407.25C269 405.917 272.833 405.917 276.5 407.25C280.167 408.583 282.833 411.083 284.5 414.75C286.167 418.417 287.167 436.917 287.5 470.25C287.833 503.583 285.489 522.122 289.562 522.156C308.199 522.309 322.333 520.917 323 520.25C323.667 519.583 324.167 502.917 324.5 470.25C324.833 437.583 326.167 419.25 328.5 415.25C330.833 411.25 333 408.75 335 407.75C337 406.75 339.833 406.25 343.5 406.25C347.167 406.25 350.167 407.083 352.5 408.75C354.833 410.417 356.5 412.583 357.5 415.25C358.5 417.917 359 435.75 359 468.75C359 501.75 359.5 518.75 360.5 519.75C361.5 520.75 367.333 521.25 378 521.25C388.667 521.25 394.333 520.75 395 519.75C395.667 518.75 396 499.25 396 461.25C396 423.25 394.833 401.083 392.5 394.75C390.167 388.417 386.5 383.417 381.5 379.75C376.5 376.083 370.667 373.75 364 372.75C357.333 371.75 350.5 372.583 343.5 375.25C336.5 377.917 331.333 381.25 328 385.25C324.667 389.25 322.833 392.083 322.5 393.75C322.167 395.417 321.667 396.25 321 396.25C320.333 396.25 319.333 394.583 318 391.25C316.667 387.917 314.333 384.583 311 381.25C307.667 377.917 304.333 375.583 301 374.25C297.667 372.917 293.833 372.083 289.5 371.75C287.334 371.583 285.167 371.583 283 371.75ZM746.5 371.75C740.833 371.417 734 372.417 726 374.75C718 377.083 711 381.083 705 386.75C699 392.417 694.167 399.417 690.5 407.75C686.833 416.083 684.5 426.083 683.5 437.75C682.5 449.417 682.833 459.75 684.5 468.75C686.167 477.75 688.833 485.75 692.5 492.75C696.167 499.75 699.833 505.083 703.5 508.75C707.167 512.417 711.167 515.417 715.5 517.75C719.833 520.083 723.833 521.75 727.5 522.75C731.167 523.75 736 524.25 742 524.25C748 524.25 753 523.75 757 522.75C761 521.75 765.167 520.083 769.5 517.75C773.833 515.417 778.833 511.083 784.5 504.75C790.167 498.417 794.667 490.583 798 481.25C801.333 471.917 803.167 462.417 803.5 452.75C803.833 443.083 802.833 433.25 800.5 423.25C798.167 413.25 795.167 405.25 791.5 399.25C787.833 393.25 784.333 388.75 781 385.75C777.667 382.75 774.167 380.25 770.5 378.25C766.833 376.25 763.333 374.75 760 373.75C756.667 372.75 752.167 372.083 746.5 371.75ZM741.875 399.75C743.292 399.583 744.667 399.583 746 399.75C748.667 400.083 751.167 401.083 753.5 402.75C755.833 404.417 757.667 406.583 759 409.25C760.333 411.917 761.5 415.917 762.5 421.25C763.5 426.583 764 435.75 764 448.75C764 461.75 763.5 470.583 762.5 475.25C761.5 479.917 759.5 484.25 756.5 488.25C753.5 492.25 751 494.583 749 495.25C747 495.917 744.333 496.083 741 495.75C737.667 495.417 734.833 494.25 732.5 492.25C730.167 490.25 728.333 487.75 727 484.75C725.667 481.75 724.5 477.417 723.5 471.75C722.5 466.083 722.333 455.417 723 439.75C723.667 424.083 724.667 414.75 726 411.75C727.333 408.75 728.833 406.417 730.5 404.75C732.167 403.083 734.5 401.75 737.5 400.75C739 400.25 740.458 399.917 741.875 399.75ZM899 371.75C894.333 371.417 889 372.25 883 374.25C877 376.25 872.667 378.583 870 381.25C867.333 383.917 865 387.417 863 391.75C862 393.917 861 396.083 860 398.25C859.833 394.75 859.667 391.25 859.5 387.75C859.167 380.75 858.5 376.75 857.5 375.75C856.5 374.75 851.167 374.25 841.5 374.25C831.833 374.25 826.5 374.75 825.5 375.75C824.5 376.75 824 400.75 824 447.75C824 494.75 824.333 518.75 825 519.75C825.667 520.75 831.333 521.25 842 521.25C852.667 521.25 858.5 520.75 859.5 519.75C860.5 518.75 861 503.583 861 474.25C861 444.917 862 427.25 864 421.25C866 415.25 868.833 411.083 872.5 408.75C876.167 406.417 880.167 405.75 884.5 406.75C888.833 407.75 892 410.417 894 414.75C896 419.083 897 437.417 897 469.75C897 502.083 897.5 518.75 898.5 519.75C899.5 520.75 905.333 521.25 916 521.25C926.667 521.25 932.333 520.917 933 520.25C933.667 519.583 934 500.917 934 464.25C934 427.583 933.667 407.417 933 403.75C932.333 400.083 931.167 396.25 929.5 392.25C927.833 388.25 925.5 384.75 922.5 381.75C919.5 378.75 916 376.417 912 374.75C908 373.083 903.667 372.083 899 371.75ZM617.5 374.25C586.5 374.25 570.667 374.583 570 375.25C569.333 375.917 569.167 380.75 569.5 389.75C569.833 398.75 578.167 403.583 594.5 404.25C602.667 404.583 610.833 404.917 619 405.25C609.833 418.417 600.667 431.583 591.5 444.75C573.167 471.083 564 489.583 564 500.25C564 510.917 565 516.583 567 517.25C569 517.917 572.167 517.083 576.5 514.75C580.833 512.417 585.667 510.583 591 509.25C596.333 507.917 603.667 507.083 613 506.75C622.333 506.417 630.333 506.917 637 508.25C643.667 509.583 649.833 511.583 655.5 514.25C661.167 516.917 664.667 518.083 666 517.75C667.333 517.417 668.167 512.417 668.5 502.75C668.833 493.083 668.5 487.583 667.5 486.25C666.5 484.917 662 482.75 654 479.75C646 476.75 637.5 474.917 628.5 474.25C624 473.917 619.5 473.583 615 473.25C623.333 461.417 631.667 449.583 640 437.75C656.667 414.083 665.333 401.583 666 400.25C666.667 398.917 667 394.75 667 387.75C667 380.75 666.5 376.75 665.5 375.75C664.5 374.75 648.5 374.25 617.5 374.25ZM619.719 528C613.156 528 605.75 528.75 597.5 530.25C586.5 532.25 578.667 534.417 574 536.75C569.333 539.083 566.333 541.417 565 543.75C564.333 544.917 563.667 546.083 563 547.25C570.833 546.917 578.667 546.583 586.5 546.25C602.167 545.583 612 545.583 616 546.25C620 546.917 622.833 547.917 624.5 549.25C626.167 550.583 627.167 553.083 627.5 556.75C627.833 560.417 627.667 563.917 627 567.25C626.333 570.583 623.667 578.417 619 590.75C614.333 603.083 612.167 609.75 612.5 610.75C612.833 611.75 613.833 612.25 615.5 612.25C617.167 612.25 620 610.25 624 606.25C628 602.25 631.833 597.083 635.5 590.75C639.167 584.417 642.333 576.75 645 567.75C647.667 558.75 649 551.083 649 544.75C649 538.417 647.167 534.25 643.5 532.25C639.833 530.25 634 528.917 626 528.25C624 528.083 621.906 528 619.719 528ZM191.5 537.25C190.5 537.917 190 539.083 190 540.75C190 542.417 194.333 546.917 203 554.25C211.667 561.583 221.333 568.75 232 575.75C242.667 582.75 252.833 588.75 262.5 593.75C272.167 598.75 285.833 604.417 303.5 610.75C321.167 617.083 339.5 621.917 358.5 625.25C377.5 628.583 397.333 630.25 418 630.25C438.667 630.25 459.167 628.417 479.5 624.75C499.833 621.083 518 616.417 534 610.75C550 605.083 563.667 599.25 575 593.25C586.333 587.25 594.833 581.917 600.5 577.25C606.167 572.583 609 569.417 609 567.75C609 566.083 607.667 564.583 605 563.25C602.333 561.917 593 564.25 577 570.25C561 576.25 544.667 581.25 528 585.25C511.333 589.25 495.167 592.25 479.5 594.25C463.833 596.25 445.167 597.25 423.5 597.25C401.833 597.25 383 596.25 367 594.25C351 592.25 334 589.083 316 584.75C298 580.417 280.5 575.083 263.5 568.75C246.5 562.417 230.5 555.417 215.5 547.75C200.5 540.083 192.5 536.583 191.5 537.25Z" fill="#000000" fill-rule="nonzero" opacity="1" stroke="none"/>
</g>
</svg>
