<?xml version="1.0" encoding="UTF-8" standalone="no"?>
<!DOCTYPE svg PUBLIC "-//W3C//DTD SVG 1.1//EN" "http://www.w3.org/Graphics/SVG/1.1/DTD/svg11.dtd">
<!-- Created with Vectornator (http://vectornator.io/) -->
<svg height="100%" stroke-miterlimit="10" style="fill-rule:nonzero;clip-rule:evenodd;stroke-linecap:round;stroke-linejoin:round;" version="1.1" viewBox="0 0 192.756 192.756" width="100%" xml:space="preserve" xmlns="http://www.w3.org/2000/svg" xmlns:xlink="http://www.w3.org/1999/xlink">
<defs/>
<g id="Untitled">
<g opacity="1">
<path d="M100.941 108.457L99.2203 106.305C97.8203 107.703 94.6993 109.102 92.4393 109.102C88.5643 109.102 85.2283 106.305 85.2283 102.645C85.2283 98.1244 89.5333 95.6484 90.8253 95.2184C89.9643 94.1414 88.4573 92.3124 88.4573 90.0514C88.5643 87.0384 90.3943 84.6704 94.3763 84.6704C97.8193 84.6704 100.403 86.9304 100.403 90.2674C100.403 94.0344 97.4973 95.3254 96.6363 96.0794L99.4343 100.063C100.188 99.0934 100.94 96.7244 100.832 96.2944L104.6 96.2944C104.6 96.2944 104.061 101.031 101.909 103.291L105.891 108.457L100.941 108.457ZM94.4843 88.2234C93.3003 88.2234 92.3323 89.1924 92.4393 90.1604C92.5463 91.4524 93.6233 92.3134 94.2693 93.1744C95.1303 92.5284 96.6373 91.6674 96.6373 90.2684C96.6373 89.1914 95.7753 88.2234 94.4843 88.2234ZM93.6034 98.1126C89.9444 100.588 89.6413 102.427 89.6413 102.427C89.6413 104.148 91.2553 105.116 92.4393 105.224C93.8383 105.224 95.8833 104.04 96.8523 103.179L93.6034 98.1126Z" fill="#434343" fill-rule="evenodd" opacity="1" stroke="none"/>
<path d="M28.7263 94.7884C27.8653 91.3444 24.7443 88.5464 21.0853 88.5464C16.4573 88.5464 13.0133 92.2054 13.1213 96.6174C13.2293 100.923 16.5653 104.261 21.0853 104.261C25.3903 104.261 27.8653 101.138 28.4033 99.0944L32.9233 99.0944C31.9543 105.445 25.8203 108.781 20.9773 108.781C15.4893 108.781 8.60132 104.261 8.60132 96.6184C8.60132 89.4084 14.0903 84.0274 21.0853 84.0274C27.0043 84.0274 32.3853 88.5474 33.1393 94.7894L28.7263 94.7894L28.7263 94.7884ZM65.3183 108.565C61.7663 108.565 61.1213 105.981 61.1213 104.583L61.1213 94.1424L58.8613 94.1424L58.8613 90.8064L61.1213 90.8064L61.1213 85.6404L65.6423 85.6404L65.6423 91.0214L68.5473 91.0214L68.5473 94.1424L65.6423 94.1424L65.6423 103.507C65.6423 105.874 68.5473 105.12 68.9783 105.228L68.9783 108.566L65.3183 108.566L65.3183 108.565ZM38.4123 100.6L38.4123 108.457L33.9993 108.457L33.9993 91.3444L38.3043 91.3444L38.3043 93.0664C38.9503 92.2054 40.2413 91.2364 41.6403 90.8064C42.6093 90.6994 43.5783 90.8064 43.5783 90.8064L43.5783 95.0034C41.3183 94.3574 38.1973 95.3264 38.4123 100.6Z" fill="#e3e7ea" fill-rule="evenodd" opacity="1" stroke="none"/>
<path d="M72.3133 100.922C72.3133 103.182 74.4663 104.904 76.7263 104.904C78.3403 104.904 79.3093 104.259 80.1703 102.966L84.7973 102.966C84.1513 105.98 81.0303 108.778 76.9413 108.778C71.6683 108.778 67.9013 104.796 67.9013 99.1994C67.9013 94.8944 71.1303 90.4814 76.4033 90.5894C82.4303 90.6974 85.1213 95.8624 85.0133 100.921L72.3133 100.921L72.3133 100.922ZM76.2963 94.1424C74.3583 94.0354 72.5293 95.5414 72.5293 97.6934L80.0623 97.6934C80.0623 95.5414 78.3413 94.1424 76.2963 94.1424ZM54.9863 108.457C54.9863 108.564 54.8793 107.811 54.6633 107.057C53.9103 107.703 52.1883 108.995 49.4973 108.995C46.4833 108.995 43.0393 107.165 43.0393 103.614C43.0393 101.462 44.4383 98.6624 49.2813 98.0174C52.0793 97.5854 54.2323 97.8004 54.3393 96.2944C54.4463 95.7554 53.9083 93.9264 51.1103 93.9264C49.8183 93.9264 48.2043 94.3564 47.8813 96.4014L44.0063 96.4014C44.0063 93.3884 45.8363 90.8054 51.5403 90.8054C55.0913 90.8054 58.6433 92.3124 58.6433 96.1864L58.6433 105.658C58.7513 106.627 59.0743 107.918 59.3973 108.457L54.9863 108.457ZM47.0223 103.506C47.1303 105.336 49.4983 105.658 49.9283 105.444C49.9283 105.444 52.2963 105.444 53.3723 104.26C54.0183 103.399 54.3413 102.322 54.0183 99.9524C49.7133 100.922 47.0223 101.354 47.0223 103.506ZM180.044 85.4244L184.349 85.4244L184.349 108.457L180.044 108.457L180.044 85.4244ZM157.335 100.707L157.335 108.457L152.923 108.457L152.923 91.4514L157.228 91.4514L157.228 93.1734C157.982 92.3124 159.166 91.2354 160.564 90.9134C161.24 90.7862 161.934 90.7862 162.609 90.9134L162.609 95.1104C160.134 94.4654 157.12 95.4344 157.335 100.707ZM146.681 100.707L146.681 108.457L142.161 108.457L142.161 91.4514L146.573 91.4514L146.573 93.1734C147.327 92.3124 148.511 91.2354 149.909 90.9134C150.878 90.6984 151.847 90.9134 151.847 90.9134L151.847 95.1104C149.587 94.4654 146.466 95.4344 146.681 100.707ZM166.591 101.032C166.591 103.182 168.743 104.905 171.003 104.905C172.511 104.905 173.587 104.368 174.448 102.967L178.968 102.967C178.429 105.981 175.308 108.779 171.218 108.779C166.054 108.779 162.179 104.797 162.179 99.3074C162.179 95.0024 165.408 90.5894 170.681 90.6974C176.601 90.6974 179.398 95.9704 179.183 101.031L166.591 101.031L166.591 101.032ZM170.681 94.1424C168.636 94.1424 166.806 95.5414 166.806 97.6934L174.341 97.6934C174.341 95.6484 172.726 94.1424 170.681 94.1424ZM118.161 108.457L106.106 108.457L106.106 85.3164L116.545 85.3164C120.098 85.3164 123.756 86.9314 123.756 91.2354C123.756 94.7874 120.959 95.5404 120.313 96.0784C122.358 96.7234 124.618 98.6614 124.618 102.429C124.618 106.52 120.636 108.457 118.161 108.457ZM115.577 88.9764L110.411 88.9764L110.411 94.6804L115.362 94.6804C116.438 94.6804 119.022 94.2504 119.022 91.5594C119.023 89.7294 117.193 88.9764 115.577 88.9764ZM115.577 98.1244L110.411 98.1244L110.411 104.904L115.901 104.904C116.653 104.904 119.559 104.259 119.559 101.783C119.56 100.385 119.238 98.1244 115.577 98.1244ZM137.21 108.457C137.21 108.564 136.995 107.811 136.888 107.057C136.134 107.703 134.411 108.995 131.722 108.995C128.708 108.995 125.265 107.165 125.265 103.614C125.265 101.462 126.663 98.7694 131.615 98.0174C134.197 97.5854 136.457 97.8004 136.564 96.2944C136.671 95.8634 136.134 94.0344 133.335 94.0344C132.044 94.0344 130.538 94.3574 130.214 96.5094L126.234 96.5094C126.234 93.4964 128.277 90.9134 133.767 90.9134C137.21 90.9134 140.761 92.4204 140.871 96.2944L140.871 105.119C140.871 105.873 141.193 107.81 141.516 108.457L137.21 108.457ZM129.785 103.506C129.785 105.336 132.26 105.658 132.691 105.444C132.691 105.444 135.058 105.444 136.027 104.26C136.672 103.399 136.888 102.43 136.672 99.9524C132.474 101.032 129.785 101.354 129.785 103.506Z" fill="#e3e7ea" fill-rule="evenodd" opacity="1" stroke="none"/>
</g>
</g>
</svg>
