<?xml version="1.0" encoding="UTF-8" standalone="no"?>
<!DOCTYPE svg PUBLIC "-//W3C//DTD SVG 1.1//EN" "http://www.w3.org/Graphics/SVG/1.1/DTD/svg11.dtd">
<!-- Created with Vectornator (http://vectornator.io/) -->
<svg height="100%" stroke-miterlimit="10" style="fill-rule:nonzero;clip-rule:evenodd;stroke-linecap:round;stroke-linejoin:round;" version="1.1" viewBox="0 0 192.756 192.756" width="100%" xml:space="preserve" xmlns="http://www.w3.org/2000/svg" xmlns:xlink="http://www.w3.org/1999/xlink">
<defs/>
<g id="Untitled">
<g opacity="1">
<path d="M0 0L192.756 0L192.756 192.756L0 192.756L0 0Z" fill="#ffffff" fill-rule="evenodd" opacity="1" stroke="none"/>
<path d="M100.844 108.271L99.123 106.119C97.723 107.517 94.602 108.916 92.342 108.916C88.467 108.916 85.131 106.119 85.131 102.459C85.131 97.939 89.436 95.463 90.728 95.033C89.867 93.956 88.36 92.127 88.36 89.866C88.467 86.853 90.297 84.485 94.279 84.485C97.722 84.485 100.306 86.745 100.306 90.082C100.306 93.849 97.4 95.14 96.539 95.894L99.337 99.877C100.091 98.908 100.843 96.539 100.735 96.109L104.503 96.109C104.503 96.109 103.964 100.845 101.812 103.105L105.794 108.271C105.794 108.271 100.844 108.271 100.844 108.271ZM94.387 88.038C93.203 88.038 92.235 89.007 92.342 89.975C92.449 91.267 93.526 92.128 94.172 92.989C95.033 92.343 96.54 91.482 96.54 90.083C96.54 89.006 95.678 88.038 94.387 88.038ZM92.988 98.047C89.329 100.522 89.544 102.244 89.544 102.244C89.544 103.965 91.158 104.933 92.342 105.041C93.741 105.041 95.786 103.857 96.755 102.996L92.988 98.047Z" fill="#929496" fill-rule="evenodd" opacity="1" stroke="none"/>
<path d="M28.629 94.603C27.768 91.159 24.647 88.361 20.988 88.361C16.36 88.361 12.916 92.02 13.024 96.432C13.132 100.737 16.468 104.075 20.988 104.075C25.293 104.075 27.768 100.952 28.306 98.909L32.826 98.909C31.857 105.259 25.723 108.595 20.88 108.595C15.392 108.595 8.504 104.075 8.504 96.433C8.504 89.223 13.993 83.842 20.988 83.842C26.907 83.842 32.288 88.362 33.042 94.604L28.629 94.604C28.629 94.604 28.629 94.603 28.629 94.603ZM65.221 108.379C61.669 108.379 61.024 105.795 61.024 104.397L61.024 93.957L58.764 93.957L58.764 90.621L61.024 90.621L61.024 85.455L65.545 85.455L65.545 90.836L68.45 90.836L68.45 93.957L65.545 93.957L65.545 103.321C65.545 105.688 68.45 104.934 68.881 105.042L68.881 108.38L65.221 108.38L65.221 108.379ZM38.315 100.414L38.315 108.271L33.902 108.271L33.902 91.159L38.207 91.159L38.207 92.881C38.853 92.02 40.144 91.051 41.543 90.621C42.512 90.514 43.481 90.621 43.481 90.621L43.481 94.818C41.221 94.172 38.1 95.141 38.315 100.414Z" fill="#000000" fill-rule="evenodd" opacity="1" stroke="none"/>
<path d="M72.216 100.736C72.216 102.996 74.369 104.718 76.629 104.718C78.243 104.718 79.212 104.073 80.073 102.78L84.7 102.78C84.054 105.794 80.933 108.592 76.844 108.592C71.571 108.592 67.804 104.61 67.804 99.014C67.804 94.709 71.033 90.296 76.306 90.404C82.333 90.512 85.024 95.677 84.916 100.735L72.216 100.735L72.216 100.736ZM76.199 93.957C74.261 93.85 72.432 95.356 72.432 97.508L79.965 97.508C79.965 95.356 78.244 93.957 76.199 93.957ZM54.889 108.271C54.889 108.378 54.782 107.625 54.566 106.871C53.813 107.517 52.091 108.809 49.4 108.809C46.386 108.809 42.942 106.979 42.942 103.428C42.942 101.276 44.341 98.477 49.184 97.832C51.982 97.4 54.135 97.615 54.242 96.109C54.349 95.57 53.811 93.741 51.013 93.741C49.721 93.741 48.107 94.171 47.784 96.216L43.909 96.216C43.909 93.203 45.739 90.62 51.443 90.62C54.994 90.62 58.546 92.127 58.546 96.001L58.546 105.472C58.654 106.441 58.977 107.732 59.3 108.271L54.889 108.271ZM46.925 103.32C47.033 105.15 49.401 105.472 49.831 105.258C49.831 105.258 52.199 105.258 53.275 104.074C53.921 103.213 54.244 102.136 53.921 99.767C49.616 100.736 46.925 101.168 46.925 103.32ZM179.947 85.239L184.252 85.239L184.252 108.271L179.947 108.271L179.947 85.239ZM157.238 100.521L157.238 108.271L152.826 108.271L152.826 91.266L157.131 91.266L157.131 92.988C157.885 92.127 159.069 91.05 160.467 90.728C161.143 90.6009 161.836 90.6009 162.512 90.728L162.512 94.925C160.037 94.28 157.023 95.249 157.238 100.521ZM146.584 100.521L146.584 108.271L142.064 108.271L142.064 91.266L146.476 91.266L146.476 92.988C147.23 92.127 148.414 91.05 149.812 90.728C150.781 90.513 151.75 90.728 151.75 90.728L151.75 94.925C149.49 94.28 146.369 95.249 146.584 100.521ZM166.494 100.846C166.494 102.996 168.646 104.719 170.906 104.719C172.414 104.719 173.49 104.182 174.351 102.781L178.871 102.781C178.332 105.795 175.211 108.593 171.121 108.593C165.957 108.593 162.082 104.611 162.082 99.122C162.082 94.817 165.311 90.404 170.584 90.512C176.504 90.512 179.301 95.785 179.086 100.845L166.494 100.845C166.494 100.845 166.494 100.846 166.494 100.846ZM170.584 93.957C168.539 93.957 166.709 95.356 166.709 97.508L174.244 97.508C174.244 95.463 172.629 93.957 170.584 93.957ZM118.064 108.271L106.009 108.271L106.009 85.131L116.448 85.131C120.001 85.131 123.659 86.746 123.659 91.05C123.659 94.602 120.862 95.355 120.216 95.893C122.261 96.538 124.521 98.476 124.521 102.243C124.521 106.334 120.539 108.271 118.064 108.271ZM115.48 88.791L110.314 88.791L110.314 94.495L115.265 94.495C116.341 94.495 118.925 94.065 118.925 91.374C118.926 89.544 117.096 88.791 115.48 88.791ZM115.48 97.939L110.314 97.939L110.314 104.718L115.804 104.718C116.556 104.718 119.462 104.073 119.462 101.597C119.463 100.199 119.141 97.939 115.48 97.939ZM137.113 108.271C137.113 108.378 136.898 107.625 136.791 106.871C136.037 107.517 134.314 108.809 131.625 108.809C128.611 108.809 125.168 106.979 125.168 103.428C125.168 101.276 126.566 98.584 131.518 97.832C134.1 97.4 136.36 97.615 136.467 96.109C136.574 95.678 136.037 93.849 133.238 93.849C131.947 93.849 130.441 94.172 130.117 96.324L126.137 96.324C126.137 93.311 128.18 90.728 133.67 90.728C137.113 90.728 140.664 92.235 140.774 96.109L140.774 104.933C140.774 105.687 141.096 107.624 141.419 108.271C141.419 108.271 137.113 108.271 137.113 108.271ZM129.688 103.32C129.688 105.15 132.163 105.472 132.594 105.258C132.594 105.258 134.961 105.258 135.93 104.074C136.575 103.213 136.791 102.244 136.575 99.767C132.377 100.846 129.688 101.168 129.688 103.32Z" fill="#000000" fill-rule="evenodd" opacity="1" stroke="none"/>
</g>
</g>
</svg>
