<?xml version="1.0" encoding="UTF-8" standalone="no"?>
<!DOCTYPE svg PUBLIC "-//W3C//DTD SVG 1.1//EN" "http://www.w3.org/Graphics/SVG/1.1/DTD/svg11.dtd">
<!-- Created with Vectornator (http://vectornator.io/) -->
<svg height="100%" stroke-miterlimit="10" style="fill-rule:nonzero;clip-rule:evenodd;stroke-linecap:round;stroke-linejoin:round;" version="1.1" viewBox="0 0 39 41" width="100%" xml:space="preserve" xmlns="http://www.w3.org/2000/svg" xmlns:xlink="http://www.w3.org/1999/xlink">
<defs/>
<g id="Untitled">
<path d="M9.81549 37.3985C9.04882 37.3985 8.38216 37.1151 7.81549 36.5485C7.24882 35.9818 6.96549 35.2985 6.96549 34.4985L6.96549 7.29848L4.91549 7.29848L4.91549 5.04848L13.4655 5.04848L13.4655 3.64848L26.3655 3.64848L26.3655 5.04848L34.9155 5.04848L34.9155 7.29848L32.8655 7.29848L32.8655 34.4985C32.8655 35.2985 32.5822 35.9818 32.0155 36.5485C31.4488 37.1151 30.7822 37.3985 30.0155 37.3985L9.81549 37.3985ZM30.6155 7.29848L9.21549 7.29848L9.21549 34.4985C9.21549 34.6985 9.27383 34.8568 9.39049 34.9735C9.50716 35.0901 9.64883 35.1485 9.81549 35.1485L30.0155 35.1485C30.1488 35.1485 30.2822 35.0818 30.4155 34.9485C30.5488 34.8151 30.6155 34.6651 30.6155 34.4985L30.6155 7.29848ZM14.9655 30.8985L17.2655 30.8985L17.2655 11.4985L14.9655 11.4985L14.9655 30.8985ZM22.5655 30.8985L24.8655 30.8985L24.8655 11.4985L22.5655 11.4985L22.5655 30.8985ZM9.21549 7.29848L9.21549 35.1485L9.21549 34.4985L9.21549 7.29848Z" fill="#e8e8f2" fill-rule="nonzero" opacity="1" stroke="none"/>
</g>
</svg>
