<?xml version="1.0" encoding="UTF-8" standalone="no"?>
<!DOCTYPE svg PUBLIC "-//W3C//DTD SVG 1.1//EN" "http://www.w3.org/Graphics/SVG/1.1/DTD/svg11.dtd">
<!-- Created with Vectornator (http://vectornator.io/) -->
<svg height="100%" stroke-miterlimit="10" style="fill-rule:nonzero;clip-rule:evenodd;stroke-linecap:round;stroke-linejoin:round;" version="1.1" viewBox="0 0 652 652" width="100%" xml:space="preserve" xmlns="http://www.w3.org/2000/svg" xmlns:xlink="http://www.w3.org/1999/xlink">
<defs/>
<g id="Untitled">
<path d="M601.2 297.6C590.3 297.6 584.4 303.1 580.6 307.3C578.9 309.2 578.4 310 577.6 310C576.8 310 576.6 309.1 575.8 307.5C575 306 571.3 297.9 560.2 297.9C549.4 297.9 542.9 304.3 539.4 307.8C538.6 308.6 537.2 309.1 537.2 307.4L537.2 301.2C537.2 298.7 536.5 298.7 532.5 298.7C528.6 298.7 527.3 298.7 527.3 301.2L527.3 372.4C527.3 374.3 528.5 374.3 532.4 374.3C535.5 374.3 537.4 374.4 537.4 372.4L537.4 336.8C537.4 319.3 545.7 308 556.2 307.9C566.9 307.9 568.9 317.5 568.9 324.9L568.9 372.7C568.9 374.8 570.8 374.2 573.7 374.2C576.7 374.2 578.8 374.8 578.8 372.7L578.8 336.7C578.8 319.2 586.7 307.9 599 307.8C608.2 307.8 610.8 315.3 610.8 322.7L610.8 371.7C610.8 374.2 611.5 374.1 615.6 374.1C619.6 374.1 620.9 373.9 620.9 371.7L620.9 320C620.8 306 612.5 297.5 601.2 297.6M494.9 269.8C494.9 268.1 494.7 267.1 492.9 267.1L476 267.4C474.8 267.4 474.9 268.4 474.9 272C474.9 274.6 474.8 276.3 476 276.3C482.6 276.3 484.6 279.2 484.6 283.5L484.6 371.6C484.6 373.9 484.1 374 489.5 374C495.1 374 494.8 374.2 494.8 371.6L494.8 269.8L494.9 269.8ZM161.9 303.8C168.8 303.8 178.4 309.4 178.4 318.5C178.4 324.9 177.7 325.7 176.1 325.7C175.5 325.7 146.9 325.8 144.2 325.8C142.3 325.8 142.2 324.8 142.2 323C142.1 315.4 149.2 303.8 161.9 303.8M143.6 334.9L180.9 334.8C183.9 334.8 186.2 333.9 187.1 331.3C188.1 327.7 188.9 324.7 188.4 317.8C187.2 299.4 171.8 294.1 162.2 294.1C141.2 294.1 129.3 311.7 129.3 335.4C129.3 348.7 131.9 355.4 137.4 363.6C143 371.7 153.3 374.8 161.8 374.8C170.3 374.8 184.4 369.7 187.4 366.2C188 365.5 188 363.4 187.6 361.2C187.2 359.3 186.5 356.7 185.1 357.2C182.8 358.1 175.8 364.1 163.2 364.1C141.5 364.2 141.2 343.3 141 339.2C140.9 335 141.6 334.9 143.6 334.9M332.5 360.8C330.2 361.7 328.1 363.3 322 363.3C310.9 363.3 308.4 354.6 308.4 347.3L308.4 307.5C308.5 305.9 309 305.5 311.1 305.5L332.4 305.4C333.2 305.4 333.1 303.9 333.1 300.3C333.1 296.7 333.3 295.1 331.9 295.1L311.1 295.2C309.2 295.2 308.4 294.6 308.4 291.9L308.4 273.2C308.4 270.3 308.1 270.2 303.3 271.7C298 273.3 298 273.3 298 275.4L298 291.9C298 293.9 297.6 295.2 295.2 295.2L287.2 295.2C285.3 295.2 285.9 297.4 285.9 300.3C285.9 303.3 285.9 305.5 287.2 305.5L295.5 305.4C297 305.5 297.9 305.6 297.9 307.2L297.9 340.7C298 359.8 300.6 364 304.8 368.4C309.1 372.8 315 374.1 319.2 374C323.5 374 329.5 372.3 333.5 370.5C335.5 369.6 335.7 368.9 335 364.6C334.3 360.5 333.8 360.3 332.5 360.8M245.7 329.9C238.9 326.8 229.4 324.8 229.4 315.5C229.4 307.6 236.9 303.8 242 303.8C245.3 303.8 249.7 304.8 254.2 306.6C258.7 308.5 258.6 306.9 260.3 303.9C261.6 301.8 261.9 299.8 261.4 299.3C258.6 296.9 250.9 293.8 242.1 293.9C226.1 294 217.7 304.1 217.8 315.6C217.8 326.6 227.2 333.6 235.9 337.7C244.9 341.8 254 344.9 254.1 352.5C254.1 357.5 249.7 364.9 240.5 364.9C232.8 364.9 224.9 360.3 222.2 359C220.7 358.3 220.1 359.9 218.9 362.3C217.4 365.4 216.4 367.7 217.5 368.4C223 371.8 232.5 375.1 240.3 375.1C254.7 375 265.8 366.3 265.8 352.3C265.8 337.4 252.4 333.1 245.7 329.9M426.6 303.8C433.5 303.8 443.1 309.4 443.1 318.5C443.1 324.9 442.4 325.7 440.8 325.7C440.2 325.7 411.6 325.8 408.9 325.8C407 325.8 406.9 324.8 406.9 323C406.8 315.4 413.9 303.8 426.6 303.8M408.3 334.9L445.6 334.8C448.6 334.8 450.9 333.9 451.8 331.3C452.8 327.7 453.6 324.7 453.1 317.8C452 299.3 436.6 294 427 294C406 294 394.1 311.6 394.1 335.3C394.1 348.6 396.7 355.3 402.2 363.5C407.8 371.6 418.1 374.7 426.6 374.7C435.1 374.7 449.2 369.6 452.2 366.1C452.8 365.4 452.8 363.3 452.4 361.1C452 359.2 451.3 356.6 449.9 357.1C447.6 358 440.6 364 428 364C406.3 364.1 406 343.2 405.8 339.1C405.6 335 406.3 334.9 408.3 334.9M105.6 296.4C101.4 296.4 100.3 296.1 99.6 297.7C99.4 298.3 88.8 352.5 88.8 352.5C88.4 354.1 88.1 354.8 87.2 354.8C86.3 354.8 85.9 354.4 85.6 353L70.4 298.4C70 296.8 69.3 296.2 65.6 296.2C61.9 296.2 61.1 296.6 60.6 298.4L46 353C45.6 354.4 45.2 354.8 44.3 354.8C43.5 354.8 43.1 353.2 42.7 351.6L31.3 297.5C30.7 295.5 29.6 296 25.8 296C22 296 20.9 296.2 20.9 298.3C20.9 299.3 37 367.9 37.7 370.8C38.5 373.9 39.6 374.9 43.9 374.9C49 374.9 49.6 372.7 50.4 370.8L64.2 321.7C64.7 320.3 64.7 319.6 65.7 319.6C66.7 319.6 66.8 320.4 67.2 321.7L81 370.8C81.8 372.7 82.4 374.9 87.5 374.9C91.8 374.9 92.9 373.9 93.7 370.8C94.4 367.9 110.1 298.8 110.1 298C109.9 296.1 108.4 296.4 105.6 296.4" fill="#e3e7ea" fill-rule="nonzero" opacity="1" stroke="none"/>
</g>
</svg>
